# xmcd
#
# Track frame offsets:
#	150
#	14282
#	29102
#	40580
#	55110
#	71330
#	86562
#	98017
#	111760
#	125252
#	140707
#	155665
#	170825
#	184677
#
# Disc length: 2696 seconds
#
# Revision: 0
# Processed by: cddbd v1.5.2PL0 Copyright (c) Steve Scherf et al.
# Submitted via: EasyCDDAExtractor 10.0.6.1
#
DISCID=bb0a860e
DTITLE=Bobby Mackey - Ten Shades Of Green
DYEAR=2004
DGENRE=Bluegrass
TTITLE0=Ten Shades Of Green
TTITLE1=Seven Spanish Angels
TTITLE2=Ashes Of Love
TTITLE3=Streets Of Baltimore
TTITLE4=Pepsi Man
TTITLE5=Heart
TTITLE6=Boogie Grass Band
TTITLE7=Corner Of Walk and Don't Walk
TTITLE8=Poison Love
TTITLE9=Thinking Of Home
TTITLE10=Yard Sale
TTITLE11=With Tears In My Eyes
TTITLE12=Close To You
TTITLE13=Hero Daddy
EXTD=
EXTT0=
EXTT1=
EXTT2=
EXTT3=
EXTT4=
EXTT5=
EXTT6=
EXTT7=
EXTT8=
EXTT9=
EXTT10=
EXTT11=
EXTT12=
EXTT13=
PLAYORDER=
